<svg width="246" height="88" xmlns="http://www.w3.org/2000/svg"><g transform="matrix(1 0 0 1 123 44)"  ><g style=""   ><g transform="matrix(1 0 0 1 -69.59 -17.78)"  ><path style="stroke: none; stroke-width: 1; stroke-dasharray: none; stroke-linecap: butt; stroke-dashoffset: 0; stroke-linejoin: miter; stroke-miterlimit: 4; fill: rgb(33,137,126); fill-rule: nonzero; opacity: 1;"  transform=" translate(-53.41, -26.22)" d="M 34.207 11.4552 C 34.207 8.7532 37.4991 7.42838 39.3707 9.37725 L 72.6218 44.0004 L 34.207 44.0004 L 34.207 11.4552 Z" stroke-linecap="round" /></g><g transform="matrix(1 0 0 1 -93.59 -12.78)"  ><path style="stroke: none; stroke-width: 1; stroke-dasharray: none; stroke-linecap: butt; stroke-dashoffset: 0; stroke-linejoin: miter; stroke-miterlimit: 4; fill: rgb(255,171,73); fill-rule: nonzero; opacity: 1;"  transform=" translate(-29.41, -31.22)" d="M 15 21.4542 C 15 18.7522 18.2921 17.4274 20.1638 19.3762 L 43.8116 43.9999 L 15 43.9999 L 15 21.4542 Z" stroke-linecap="round" /></g><g transform="matrix(1 0 0 1 -88.79 17.78)"  ><path style="stroke: none; stroke-width: 1; stroke-dasharray: none; stroke-linecap: butt; stroke-dashoffset: 0; stroke-linejoin: miter; stroke-miterlimit: 4; fill: rgb(255,142,10); fill-rule: nonzero; opacity: 1;"  transform=" translate(-34.21, -61.78)" d="M 53.4149 76.5452 C 53.4149 79.2472 50.1228 80.572 48.2511 78.6232 L 15 44 L 53.4149 44 L 53.4149 76.5452 Z" stroke-linecap="round" /></g><g transform="matrix(1 0 0 1 -64.78 12.78)"  ><path style="stroke: none; stroke-width: 1; stroke-dasharray: none; stroke-linecap: butt; stroke-dashoffset: 0; stroke-linejoin: miter; stroke-miterlimit: 4; fill: rgb(76,165,155); fill-rule: nonzero; opacity: 1;"  transform=" translate(-58.22, -56.78)" d="M 72.6241 66.5467 C 72.6241 69.2487 69.332 70.5735 67.4604 68.6247 L 43.8125 44.001 L 72.6241 44.001 L 72.6241 66.5467 Z" stroke-linecap="round" /></g><g transform="matrix(1 0 0 1 102.5 0)"  ><path style="stroke: none; stroke-width: 1; stroke-dasharray: none; stroke-linecap: butt; stroke-dashoffset: 0; stroke-linejoin: miter; stroke-miterlimit: 4; fill: rgb(14,14,14); fill-rule: nonzero; opacity: 1;"  transform=" translate(-225.5, -44)" d="M 225.557 64.3051 C 221.833 64.3051 218.407 63.43 215.279 61.6797 C 212.188 59.9294 209.73 57.5087 207.905 54.4178 C 206.08 51.3268 205.168 47.8448 205.168 43.9718 C 205.168 40.0988 206.08 36.6168 207.905 33.5258 C 209.73 30.4349 212.188 28.0329 215.279 26.3198 C 218.407 24.5695 221.833 23.6943 225.557 23.6943 C 229.281 23.6943 232.689 24.5695 235.78 26.3198 C 238.871 28.0329 241.31 30.4349 243.097 33.5258 C 244.922 36.6168 245.835 40.0988 245.835 43.9718 C 245.835 47.8448 244.922 51.3268 243.097 54.4178 C 241.31 57.5087 238.852 59.9294 235.724 61.6797 C 232.633 63.43 229.244 64.3051 225.557 64.3051 Z M 225.557 52.7419 C 228.015 52.7419 229.914 51.9599 231.255 50.3958 C 232.596 48.7944 233.266 46.6531 233.266 43.9718 C 233.266 41.2532 232.596 39.1119 231.255 37.5478 C 229.914 35.9465 228.015 35.1458 225.557 35.1458 C 223.062 35.1458 221.144 35.9465 219.803 37.5478 C 218.463 39.1119 217.793 41.2532 217.793 43.9718 C 217.793 46.6531 218.463 48.7944 219.803 50.3958 C 221.144 51.9599 223.062 52.7419 225.557 52.7419 Z" stroke-linecap="round" /></g><g transform="matrix(1 0 0 1 59.49 0.08)"  ><path style="stroke: none; stroke-width: 1; stroke-dasharray: none; stroke-linecap: butt; stroke-dashoffset: 0; stroke-linejoin: miter; stroke-miterlimit: 4; fill: rgb(14,14,14); fill-rule: nonzero; opacity: 1;"  transform=" translate(-182.49, -44.08)" d="M 189.082 37.882 C 188.736 37.882 188.421 37.6973 188.204 37.4273 C 187.752 36.865 187.17 36.4207 186.458 36.0944 C 185.564 35.6476 184.484 35.4241 183.218 35.4241 C 180.835 35.4241 178.991 36.2062 177.688 37.7703 C 176.384 39.2971 175.733 41.4012 175.733 44.0825 C 175.733 47.1735 176.459 49.4824 177.911 51.0093 C 179.364 52.5361 181.598 53.2996 184.615 53.2996 C 186.789 53.2996 188.642 52.6359 190.174 51.3086 C 190.798 50.7674 190.355 49.8362 189.528 49.8362 L 182.654 49.8362 C 182.102 49.8362 181.654 49.3885 181.654 48.8362 L 181.654 42.0661 C 181.654 41.5138 182.102 41.0661 182.654 41.0661 L 200.82 41.0661 C 201.372 41.0661 201.82 41.5138 201.82 42.0661 L 201.82 53.1972 C 201.82 53.374 201.773 53.5479 201.683 53.6996 C 199.981 56.5427 197.662 58.9976 194.725 61.0642 C 191.709 63.1497 187.892 64.1924 183.274 64.1924 C 179.177 64.1924 175.602 63.3545 172.549 61.6787 C 169.532 59.9656 167.205 57.5822 165.566 54.5285 C 163.965 51.4748 163.164 47.9928 163.164 44.0825 C 163.164 40.1723 163.965 36.6903 165.566 33.6366 C 167.205 30.5828 169.532 28.2181 172.549 26.5423 C 175.565 24.8292 179.103 23.9727 183.162 23.9727 C 188.339 23.9727 192.547 25.2202 195.787 27.7153 C 198.77 29.9863 200.642 32.9977 201.403 36.7495 C 201.524 37.3445 201.055 37.882 200.448 37.882 L 189.082 37.882 Z" stroke-linecap="round" /></g><g transform="matrix(1 0 0 1 16.47 0)"  ><path style="stroke: none; stroke-width: 1; stroke-dasharray: none; stroke-linecap: butt; stroke-dashoffset: 0; stroke-linejoin: miter; stroke-miterlimit: 4; fill: rgb(14,14,14); fill-rule: nonzero; opacity: 1;"  transform=" translate(-139.47, -44)" d="M 139.526 64.3051 C 135.802 64.3051 132.376 63.43 129.248 61.6797 C 126.157 59.9294 123.699 57.5087 121.874 54.4178 C 120.049 51.3268 119.137 47.8448 119.137 43.9718 C 119.137 40.0988 120.049 36.6168 121.874 33.5258 C 123.699 30.4349 126.157 28.0329 129.248 26.3198 C 132.376 24.5695 135.802 23.6943 139.526 23.6943 C 143.25 23.6943 146.657 24.5695 149.748 26.3198 C 152.839 28.0329 155.279 30.4349 157.066 33.5258 C 158.891 36.6168 159.803 40.0988 159.803 43.9718 C 159.803 47.8448 158.891 51.3268 157.066 54.4178 C 155.279 57.5087 152.821 59.9294 149.693 61.6797 C 146.602 63.43 143.213 64.3051 139.526 64.3051 Z M 139.526 52.7419 C 141.984 52.7419 143.883 51.9599 145.224 50.3958 C 146.564 48.7944 147.235 46.6531 147.235 43.9718 C 147.235 41.2532 146.564 39.1119 145.224 37.5478 C 143.883 35.9465 141.984 35.1458 139.526 35.1458 C 137.031 35.1458 135.113 35.9465 133.772 37.5478 C 132.432 39.1119 131.761 41.2532 131.761 43.9718 C 131.761 46.6531 132.432 48.7944 133.772 50.3958 C 135.113 51.9599 137.031 52.7419 139.526 52.7419 Z" stroke-linecap="round" /></g><g transform="matrix(1 0 0 1 -18.82 0.14)"  ><path style="stroke: none; stroke-width: 1; stroke-dasharray: none; stroke-linecap: butt; stroke-dashoffset: 0; stroke-linejoin: miter; stroke-miterlimit: 4; fill: rgb(14,14,14); fill-rule: nonzero; opacity: 1;"  transform=" translate(-104.18, -44.14)" d="M 104.401 53.5281 C 104.401 54.0804 104.849 54.5281 105.401 54.5281 L 115.355 54.5281 C 115.908 54.5281 116.355 54.9758 116.355 55.5281 L 116.355 62.9127 C 116.355 63.465 115.908 63.9127 115.355 63.9127 L 93 63.9127 C 92.4477 63.9127 92 63.465 92 62.9127 L 92 25.3633 C 92 24.811 92.4477 24.3633 93 24.3633 L 103.401 24.3633 C 103.953 24.3633 104.401 24.811 104.401 25.3633 L 104.401 53.5281 Z" stroke-linecap="round" /></g></g></g></svg>